<?xml version="1.0" encoding="utf-8"?>
<!-- Generator: Adobe Illustrator 24.2.3, SVG Export Plug-In . SVG Version: 6.00 Build 0)  -->
<svg version="1.1" id="Layer_1" xmlns="http://www.w3.org/2000/svg" xmlns:xlink="http://www.w3.org/1999/xlink" x="0px" y="0px"
	viewBox="454.0000305175781 578.7000122070312 692 242.60003662109375" style="enable-background:new 0 0 800 612;" xml:space="preserve">
<style type="text/css">
	.st0{fill:#006AA4;}
	.st1{fill:#888B8D;}
</style>
<g>
	<g>
		<g>
			<path class="st0" d="M1131.2,705.1c-4.7,11.2-9.4,19.3-13.9,24.1c-6.5,6.8-14.7,10.3-24.8,10.3c-13,0-24.5-5.2-34.4-15.7
				c-10.5-11-15.8-24.6-15.8-40.7c0-15.3,4.2-28,12.5-38.1c8.9-10.8,20.9-16.2,36-16.2c9.8,0,17.8,3.1,23.9,9.3
				c5.5,5.6,9.2,13.5,10.9,23.6h2.5v-27.8c-5.5-3.3-11.4-5.6-17.6-7.1c-6.2-1.4-12.7-2.2-19.6-2.2c-21.3,0-38.3,6.3-51.1,18.9
				c-11.5,11.4-17.3,25.3-17.3,41.6c0,18.4,6.7,32.9,20.2,43.6c12.4,9.9,28,14.9,46.8,14.9c6.2,0,12.2-0.6,18.1-1.8
				c5.8-1.2,11.3-3,16.5-5.5c4.3-10.3,7.4-20.3,9.3-30.3L1131.2,705.1z"/>
			<g>
				<path class="st0" d="M575,624.8c-3.2,0-5.8,5.8-5.8,10.4c0,4.6,2.6,10.4,5.8,10.4c3.2,0,5.8-5.8,5.8-10.4
					C580.7,630.6,578.2,624.8,575,624.8z"/>
				<path class="st0" d="M574.4,578.7c-66.5,0-120.4,53.9-120.4,120.4c0,36.7,17.2,69.3,43.1,91.4v0.3l2.1,0h1
					c39.3,0,67.1,11.4,73,14v16.5h4.1v-16.4c5-2.5,30.7-13.9,73.3-14l1.7,0c-0.1,0.1-0.1,0.1-0.2,0.2c0.1-0.1,0.1-0.1,0.2-0.2l0.3,0
					v-0.3c25.8-22.1,42.1-54.8,42.1-91.4C694.9,632.6,640.9,578.7,574.4,578.7z M562.8,683.2l-4.1-3.5c-4.5-4.5-10.9-5-14.3-1.6
					c-0.9,0.9-1.6,2.3-1.9,3.6l-0.1,0.3c0.8,18.1,11.8,32.9,26.2,36.3c-3.9,3.7-6.6,10.7-6.6,18.8c0,10.5,4.5,19.2,10.4,21.1
					c-3.7,1.9-6.4,7.4-6.4,14c0,4.1,1.1,7.7,2.8,10.4c-4.6-3.9-12.2-7.1-24.7-7.1c-11.5,0-25.8,2.8-42.6,8.3v-96.2h-0.1V680
					c17.4-5,32.2-7.5,43.9-7.5c15.1,0,22.3,4.2,25.7,7.8c0.6,0.6,1,1.2,1.4,1.7v30.7l-0.5-0.2c-8.8-1-15.9-7.2-20.1-16l0.3,0.3
					c4.3,3.1,9.5,3.4,12.5,0.5C568.3,694.1,567.4,687.7,562.8,683.2z M573.3,800.3c-8.4-3.6-33.7-12.9-69.3-13.6
					c33.7-7.8,51.2-3.1,60,2.3c5.7,3.5,8.3,7.6,9.4,9.9V800.3z M573.3,795.8c-1.6-2.4-4.2-5.4-8.5-8.1c-9.2-5.7-27.6-10.6-63.2-2.1
					v-0.7c16.8-5.6,31.1-8.4,42.6-8.4c19.1,0,26.3,7.6,29.1,13.3V795.8z M573.3,787.7c-0.3-0.6-0.7-1.1-1.2-1.7
					c0.4,0.2,0.8,0.5,1.2,0.6V787.7z M573.3,783.2c-3-1.5-5.1-6-5.1-11.3c0-5.3,2.1-9.8,5.1-11.3V783.2z M573.3,753.6
					c-4.1-1.7-7.2-8.7-7.2-17.2c0-8.4,3.1-15.5,7.2-17.2V753.6z M577.4,800.3v-1.8c9.7-15.6,35-19.8,70.4-11.7
					C609.4,787.3,585.3,796.6,577.4,800.3z M648.6,785.3c-45.2-10.5-63.7,0.2-71.2,10.3v-5.8c0.7-1.8,1.9-3.7,3.7-5.5
					c10.2-10.5,33.7-10.5,67.6,0.5V785.3z M578,786.6c-0.2,0.3-0.4,0.7-0.6,1v-0.7C577.6,786.8,577.8,786.7,578,786.6z M577.4,783.3
					v-23c3.2,1.3,5.5,6,5.5,11.5C582.9,777.4,580.5,782,577.4,783.3z M649,681.6h-0.4v102.1c-31.6-10.3-54.2-11-65.7-2.4
					c1.2-2.5,1.9-5.7,1.9-9.1c0-6.8-2.9-12.6-6.9-14.3c5.6-2.3,9.8-10.8,9.8-20.9c0-8-2.6-15-6.5-18.7c14.6-3.3,26-18.1,26.8-36.3
					l-0.1-0.6c0-0.2,0-1.5-2.2-3.5c-3.5-3.3-9.8-2.5-14.3,2l-3.9,3.4c-4.5,4.5-5.6,10.6-2.3,14c3,2.9,8.2,2.6,12.5-0.5l0.6-0.9
					c-4.1,9.2-11.3,15.7-20.4,16.6l-0.4,0.1v-30c0.6-0.9,1.3-1.9,2.3-2.9c4.8-4.9,13.2-7.4,24.9-7.4c11.7,0,26.5,2.5,44.1,7.5V681.6
					z M577.4,753.4v-34c3.9,1.9,6.8,8.8,6.8,17C584.2,744.6,581.3,751.5,577.4,753.4z M652.8,790.5V681.6H650v-2.4l-0.4-0.1
					c-17.8-5.1-32.9-7.7-44.8-7.7c-12,0-20.7,2.6-25.7,7.7c-0.6,0.6-1.1,1.2-1.5,1.8V676c9.6-0.8,15.8-11.1,16.8-20.4h30.4
					c10.8,0,19.6-12.2,19.6-30.3h-54.2c-1.6,0-2.9,1.3-2.9,2.9l-0.1,0.5v18.7c-1.3-2-3.6-3.5-5.7-4.5l0.1,0.5
					c-1.1,3.7-3.7,6.2-6.6,6.2c-3,0-5.5-2.5-6.6-6.2l0-0.4c-2.3,1.1-4,2.5-5.7,4.3v-18.6l-0.1-0.4c0-1.6-1.3-2.9-2.9-2.9h-54.4
					c0,18.1,8.8,30.3,19.6,30.3h30.6c1,9,7.1,19.6,16.9,20.4v4.4c-0.2-0.2-0.4-0.5-0.6-0.7c-3.5-3.7-11-8.2-26.5-8.2
					c-11.9,0-26.9,2.6-44.6,7.7l-0.4,0.1v2h-3.4v109.2c-21.2-21.2-35.1-50.6-35.1-83.6c0-64.3,50.3-116.5,112.4-116.5
					c62.1,0,112.4,52.2,112.4,116.5C686.9,739.7,673.8,769.3,652.8,790.5z"/>
			</g>
			<path class="st0" d="M1004.1,634.1c-9.2-5.3-22.1-7.9-38.7-7.9l-37,1.3v2.6c10.9,0,17.2,3.8,18.8,11.3c0.7,3.2,1,9.8,1,20v52.5
				c0,9.5-1,15.6-2.9,18.3c-2.1,2.9-6.9,5.1-14.5,6.4c-5.2-1.3-9.2-3.2-11.6-5.7c-2.3-2.4-4.6-6.9-7.1-13.6l-37.3-99.7
				c-3.5,4.3-7.6,7.4-12.4,9.3c0.5,0.8,0.7,1.7,0.7,2.8c0,1.1-0.2,2.4-0.7,3.8c-0.5,1.4-1.1,3.2-1.9,5.3l-10.1,27.7l-19.2,50
				c-2.9,7.2-5.4,11.9-7.3,13.9c-1.5,1.6-4,3-7.4,4.4c-2.4-1.1-4.4-2.3-5.9-3.9c-2.3-2.4-4.6-6.9-7.1-13.6l-37.3-99.7
				c-3.5,4.3-7.6,7.4-12.4,9.3c0.5,0.8,0.7,1.7,0.7,2.8c0,1.1-0.2,2.4-0.7,3.8c-0.5,1.4-1.1,3.2-1.9,5.3L742,668.5l-19.2,50
				c-2.9,7.2-5.4,11.9-7.3,13.9c-2.5,2.6-7.3,4.9-14.6,6.8v2.5h46.5v-2.5c-8.4-1.2-13.5-2.5-15.3-3.7c-2.7-1.8-4.1-4.4-4.1-7.8
				c0-3.5,1.4-9.2,4.1-17.1c1.5-4.3,3.6-10,6.3-17.1h38.6c1,2.9,2.9,7.8,5.6,14.4c3.5,9.7,5.2,16.6,5.2,20.5c0,3.4-1.4,6-4.2,7.8
				c-1.8,1.1-4.7,2.2-8.8,3.1v2.5h34.6h15.2h31.2v-2.5c-8.4-1.2-13.5-2.5-15.3-3.7c-2.7-1.8-4.1-4.4-4.1-7.8c0-3.5,1.4-9.2,4.1-17.1
				c1.5-4.3,3.6-10,6.3-17.1h38.6c1,2.9,2.9,7.8,5.6,14.4c3.5,9.7,5.3,16.6,5.3,20.5c0,3.4-1.4,6-4.2,7.8c-1.8,1.1-4.7,2.2-8.8,3.1
				v2.5h43.9h5.9h52.5v-2.5c-10.6-1.6-17.2-3.9-19.7-6.9c-1.9-2.4-2.9-8.5-2.9-18.3v-83.8c10.9,0,19.8,2.5,26.7,7.6
				c7.8,5.8,11.7,13.8,11.7,24.2c0,8.1-2.5,14.5-7.5,19.1c-4.5,4.2-11,6.9-19.3,8.1l0.5,2.5c12.1-1.4,21.8-4.4,29.3-9.1
				c9.6-6.1,14.3-14.5,14.3-25.2C1018.8,647.8,1013.9,640,1004.1,634.1z M741.1,685.6l16.1-44.4l17.6,44.4H741.1z M849.6,685.6
				l16.1-44.4l17.6,44.4H849.6z"/>
		</g>
		<g>
			<g>
				<path class="st1" d="M710.8,762.4c0.1,0.5,0.2,0.9,0.5,1.9c1.7,5.1,3.7,10.2,5.6,15c0.8,2,1.5,2.1,2.7,2.4
					c0.4,0.1,0.6,0.3,0.6,0.4c0,0.2-0.2,0.3-0.8,0.3c-0.4,0-2.1-0.2-3.4-0.2s-2.5,0.1-3.2,0.1c-0.4,0-0.7-0.2-0.7-0.3
					c0-0.2,0.2-0.3,0.7-0.4c1.4-0.4,1.4-1,1.3-1.7c-0.2-1.1-1.5-4.6-1.7-5.1c-0.1-0.3-0.4-0.4-0.7-0.4c-1.3,0-5.2,0-5.5,0
					c-0.2,0-0.3,0.2-0.4,0.5c-0.3,0.7-1.5,4.6-1.5,5.4c0,0.8,0.3,1.2,1.7,1.4c0.4,0.1,0.6,0.3,0.6,0.4c0,0.2-0.4,0.3-0.8,0.3
					c-0.9,0-1.1-0.2-2.5-0.2c-0.9,0-1.7,0.2-2.5,0.2c-0.5,0-0.9-0.1-0.9-0.3c0-0.2,0.2-0.3,0.6-0.4c1.4-0.3,1.9-1.1,2.4-2.5
					c2.1-5.1,5-13.9,5.5-15.4c0.1-0.3,0.2-0.7,0.2-0.9v-0.4c0-0.2,0.3-0.5,0.4-0.5c0.3-0.1,1.2-0.1,1.5,0
					C710.6,762,710.8,762.3,710.8,762.4z M711.7,772.6c-0.9-2.6-1.8-5.3-2.6-7.2c0-0.1-0.2-0.3-0.3-0.1c-0.2,0.5-2.2,6.5-2.4,7.4
					c0,0.1,0,0.2,0.2,0.2c0.5,0,4.6,0,4.9,0C711.6,772.8,711.7,772.7,711.7,772.6z"/>
				<path class="st1" d="M730.4,770c0.1,0,0.2-0.1,0.2-0.2c0-0.8-0.1-5.3-0.1-6.4c0-0.9,0-1.2-1.1-2c-0.2-0.2-0.2-0.3-0.2-0.3
					c0-0.2,0.2-0.3,0.4-0.3c1.1-0.2,2-0.5,2.4-0.7c0.3-0.1,0.5-0.2,0.7-0.2c0.1,0,0.2,0.2,0.2,0.7c-0.1,3.1-0.1,4.6-0.1,12.1
					c0,2.1,0,3.1,0,7.2c0,1.1,0.2,1.3,0.5,1.3c0.3,0,1.1-0.1,1.7-0.3c0.1,0,0.2,0.1,0.2,0.2c0,0.1-0.1,0.7-0.3,0.7
					c-0.5,0.1-2.4,0.4-3.1,0.6c-0.4,0.1-1,0.3-1.2,0.3c-0.2,0-0.3-0.3-0.3-0.3c0-0.2,0-0.8,0-1.2c0-0.1-0.1-0.3-0.2-0.2
					c-1.2,1-2.8,1.5-3.9,1.5c-3.3,0-5.3-2.8-5.3-5.9c0-2.9,1.4-4.8,3.7-6c1.2-0.6,2.5-0.9,3.8-0.9
					C729.1,769.8,729.9,769.8,730.4,770z M725.3,771.2c-1.2,0.8-1.9,2.5-1.9,4.5c0,2.9,1.7,5.6,4.6,5.6c0.5,0,1.3-0.1,2-0.6
					c0.2-0.1,0.4-0.6,0.5-1c0-0.8,0.1-4,0-6.2c0-0.1-0.2-0.9-0.4-1.2c-0.9-1-1.9-1.5-3-1.5C726.4,770.7,725.8,770.8,725.3,771.2z"/>
			</g>
			<g>
				<path class="st1" d="M734.9,770c0.6,0,1.4,0.1,2.5,0.1c0.7,0,1.5-0.1,2.1-0.1c0.4,0,0.5,0.1,0.5,0.3c0,0.2-0.6,0.4-0.8,0.5
					c-0.6,0.2-0.7,0.6-0.5,1.3c0.5,1.5,1.9,4.8,2.7,6.6c0.1,0.1,0.2,0,0.3,0c0.2-0.4,2.3-5.5,2.7-6.6c0.3-0.7,0.1-1.1-0.7-1.3
					c-0.4-0.1-0.5-0.3-0.5-0.4c0-0.2,0.2-0.3,0.5-0.3c0.6,0,0.8,0.1,1.3,0.1c0.8,0,1.8-0.1,2.2-0.1c0.3,0,0.5,0,0.5,0.2
					c0,0.1-0.1,0.3-0.5,0.4c-0.9,0.3-1.2,0.5-1.9,1.9c-0.4,0.8-1.7,3.8-2.4,5.3c-0.7,1.6-1.4,3.4-1.9,4.6c-0.1,0.3-0.2,0.3-0.3,0.3
					c-0.2,0-0.3-0.3-0.4-0.7c-0.2-0.6-0.5-1.4-0.8-2.3c-0.5-1.4-2.1-5.3-3.3-7.8c-0.3-0.8-0.7-1.1-1.5-1.3c-0.4-0.1-0.5-0.3-0.5-0.4
					C734.3,770.1,734.5,770,734.9,770z"/>
				<path class="st1" d="M755.7,770.8c0.8,1,0.8,2.2,0.8,3.3v0.4c0,1-0.1,2.6-0.1,4.5c0,1.6,0.7,2,1.2,2c0.3,0,0.9-0.2,1.2-0.4
					c0.1,0,0.3,0,0.3,0.2c0,0.1,0,0.2-0.1,0.4c-0.5,0.8-1.2,1.4-2.6,1.4c-1,0-1.7-0.5-2-1.6c0-0.1-0.2-0.1-0.2-0.1
					c-1.5,1.1-2.7,1.6-3.6,1.6c-1.2,0-2.5-0.9-2.5-2.8c0-1.5,1.2-1.9,1.6-2.1c0.3-0.1,1.7-0.5,4.2-1.4c0.3-0.1,0.5-0.3,0.5-0.6
					c0-0.3,0.1-2,0.1-2.6c0-0.5-0.6-2.1-2.3-2.1c-0.7,0-1.7,0-1.7,1.9c0,0-0.2,0.2-0.3,0.3c-0.1,0.1-1.6,0.9-1.7,0.9
					c-0.2,0-0.3-0.2-0.3-0.3c0-1.4,2.1-2.7,3.1-3.3c0.6-0.3,1.5-0.8,2.1-0.8C754.1,769.7,755,770.1,755.7,770.8z M753.8,780.6
					c0.4-0.4,0.4-2.4,0.4-3.5c0-0.1-0.1-0.2-0.2-0.2c-2.2,0.5-3.8,1.2-3.8,2.5c0,1.1,0.7,1.8,1.8,1.8
					C752.8,781.2,753.4,781.1,753.8,780.6z"/>
				<path class="st1" d="M760.9,770.5c0.7-0.2,1.5-0.6,2.1-0.9c0.2-0.1,0.3-0.2,0.5-0.2c0.1,0,0.2,0.2,0.2,0.4c0,0.5,0,1.4,0,1.5
					c0,0,0,0.2,0.1,0.2c1-0.8,2.7-1.9,4.4-1.9c1.3,0,2.3,0.6,2.7,1.2c0.8,1,0.9,1.9,1,4.3l0.1,4.8c0,1,0.3,1.4,1.2,1.6
					c0.4,0.1,0.6,0.2,0.6,0.4c0,0.3-0.4,0.3-0.8,0.3c-0.4,0-1.5-0.1-2.3-0.1c-0.7,0-1.4,0.1-2,0.1c-0.5,0-0.7-0.2-0.7-0.3
					c0-0.2,0.4-0.3,0.8-0.5c0.8-0.2,0.9-0.5,0.9-2.6l0.1-2.8c0-2.6-0.2-3.4-0.6-4c-0.5-0.6-1.4-1.1-2.3-1.1c-1.3,0-2.3,0.6-2.8,1.2
					c-0.1,0.1-0.2,0.8-0.2,0.8c0,2,0,4.3,0,6.2c0,1.7,0.2,2.2,1.3,2.4c0.4,0.1,0.6,0.2,0.6,0.4s-0.2,0.3-0.7,0.3
					c-0.9,0-1.7-0.1-2.4-0.1c-0.8,0-1.3,0.1-2.1,0.1c-0.5,0-0.7-0.1-0.7-0.3s0.2-0.3,0.6-0.4c0.9-0.2,1.1-0.6,1.1-1.2
					c0-0.6,0.2-4,0.2-6.8c0-1.4,0-1.9-1-2.4c-0.2-0.1-0.3-0.3-0.3-0.3C760.3,770.6,760.5,770.6,760.9,770.5z"/>
				<path class="st1" d="M785.4,770.4c0.1,0.1,0.3,0.4,0.3,0.7c0,0.3-0.3,1.3-0.7,1.3c-0.2,0-0.6-0.4-0.8-0.6
					c-0.8-0.7-1.7-1.4-3.1-1.4c-1.1,0-2.2,1-2.8,1.7c-0.5,0.6-0.8,1.8-0.8,3.3c0,2.2,1.6,5.5,5,5.5c2.1,0,2.9-0.9,3.4-1.5
					c0.1-0.1,0.3,0,0.3,0.1c0,0.4-0.3,0.8-0.5,1.1c-1.1,1.2-2.7,2-4.6,2c-1.9,0-3.2-0.8-4.1-1.8c-1.2-1.2-1.6-3-1.6-4.3
					c0-2.7,1.1-4.5,2.8-5.6c0.9-0.6,2.6-1.4,4.2-1.4C783.6,769.7,784.9,770,785.4,770.4z"/>
				<path class="st1" d="M788.5,770.8c1.1-0.4,2.6-1.2,2.8-1.2c0.1,0,0.2,0.2,0.2,0.4c-0.1,0.7-0.1,3.4-0.1,5.6c0,3.1,0,4.1,0.1,4.9
					c0.1,0.7,0.4,0.9,1.4,1.1c0.5,0.1,0.6,0.2,0.6,0.3c0,0.3-0.3,0.3-0.7,0.3c-0.9,0-1.6-0.1-2.6-0.1c-1.2,0-1.6,0.2-2.4,0.2
					c-0.5,0-0.6-0.1-0.6-0.3c0-0.2,0.2-0.3,0.6-0.4c0.8-0.2,1.3-0.5,1.3-1.2c0.1-0.7,0.1-2.3,0.1-4.9c0-1.3-0.1-2.3-0.1-2.7
					c0-0.6-0.3-0.8-1-1.3c-0.1-0.1-0.2-0.1-0.2-0.3S788.2,770.9,788.5,770.8z M791.8,765.5c0,0.8-0.6,1.3-1.3,1.3
					c-0.7,0-1.3-0.6-1.3-1.2c0-0.7,0.7-1.4,1.3-1.4C791.3,764.2,791.8,764.7,791.8,765.5z"/>
				<path class="st1" d="M795.9,770.5c0.7-0.2,1.5-0.6,2.1-0.9c0.2-0.1,0.3-0.2,0.5-0.2c0.1,0,0.2,0.2,0.2,0.4c0,0.5,0,1.4,0,1.5
					c0,0,0,0.2,0.1,0.2c1-0.8,2.7-1.9,4.4-1.9c1.3,0,2.3,0.6,2.7,1.2c0.8,1,0.9,1.9,1,4.3l0.1,4.8c0,1,0.3,1.4,1.2,1.6
					c0.4,0.1,0.6,0.2,0.6,0.4c0,0.3-0.4,0.3-0.8,0.3c-0.4,0-1.5-0.1-2.3-0.1c-0.7,0-1.4,0.1-2,0.1c-0.5,0-0.7-0.2-0.7-0.3
					c0-0.2,0.4-0.3,0.8-0.5c0.8-0.2,0.9-0.5,0.9-2.6l0.1-2.8c0-2.6-0.2-3.4-0.6-4c-0.5-0.6-1.4-1.1-2.3-1.1c-1.3,0-2.3,0.6-2.8,1.2
					c-0.1,0.1-0.2,0.8-0.2,0.8c0,2,0,4.3,0,6.2c0,1.7,0.2,2.2,1.3,2.4c0.4,0.1,0.6,0.2,0.6,0.4s-0.2,0.3-0.7,0.3
					c-0.9,0-1.7-0.1-2.4-0.1c-0.8,0-1.3,0.1-2.1,0.1c-0.5,0-0.7-0.1-0.7-0.3s0.2-0.3,0.6-0.4c0.9-0.2,1.1-0.6,1.1-1.2
					c0-0.6,0.2-4,0.2-6.8c0-1.4,0-1.9-1-2.4c-0.2-0.1-0.3-0.3-0.3-0.3C795.3,770.6,795.5,770.6,795.9,770.5z"/>
				<path class="st1" d="M818.7,770.3c0.1,0.1,0.5,0.2,0.6,0.2c0.3,0,2.7,0.1,3.4,0.1c0.1,0,0.2,0.4,0.2,0.5c0,0.5-0.3,0.9-0.4,0.9
					c-0.4,0-1.8-0.1-2.3-0.1c-0.1,0-0.1,0.2-0.1,0.2c0,0.2,0.1,0.9,0.1,1.3c0,1.3-0.5,2.9-1.8,3.9c-0.9,0.7-2.1,1.2-3.2,1.2
					c-0.6,0-1.2-0.1-1.5-0.2c-0.1,0-0.3,0.1-0.4,0.1c-0.6,0.4-0.9,0.8-0.9,1.3c0,1.1,1.7,1.4,2.1,1.4c0.8,0,3.5-0.1,4.1-0.1
					c0.6,0,1.1,0.1,1.5,0.4c1.3,0.7,2,1.7,2,3.1c0,2.1-1.7,4.4-3.7,5.5c-1.3,0.7-2.5,0.9-3.8,0.9c-1.3,0-2.7-0.4-3.7-1.2
					c-0.7-0.7-1.2-1.7-1.2-3c0-0.4,0.2-0.9,0.8-1.5c0.3-0.4,1.8-1.5,2.2-1.9c0.1-0.1,0.1-0.3,0-0.3c-0.7-0.3-2.4-1.3-2.4-2.9
					c0-0.3,0.2-0.6,0.2-0.6c0.7-0.3,1.8-1,2.2-1.4c0.1-0.1,0.1-0.3,0-0.3c-1.2-0.7-2.5-2-2.5-3.8c0-1.9,1.2-3.4,2.4-4
					c0.6-0.4,1.5-0.7,2.8-0.7C817.2,769.4,818,769.9,818.7,770.3z M820.6,785.8c0-1.5-0.8-2.3-2-2.4c-1.3-0.1-3.1,0-4.7,0
					c-0.2,0-0.7,0.1-1.2,0.5c-0.5,0.5-1.1,1.1-1.1,2.1c0,1.9,2.2,3.7,4.5,3.7C819.1,789.7,820.6,788,820.6,785.8z M813.8,770.6
					c-0.5,0.5-1.1,1.6-1.1,3.1c0,1.6,0.9,4.2,2.9,4.2c0.9,0,1.4-0.5,1.8-1.1c0.5-0.7,0.6-1.7,0.6-2.7c0-2.6-0.9-4.3-2.9-4.3
					C814.5,769.9,814.1,770.3,813.8,770.6z"/>
				<path class="st1" d="M837.2,770.2c0.1,0,0.3,0.7,0.3,1.2c0,0.1-0.2,0.4-0.4,0.4c-0.4,0-3.3-0.2-4.1-0.2c-0.1,0-0.1,0.2-0.1,0.3
					l0,6.1c0,1.3,0.2,2.1,0.7,2.6c0.4,0.4,1.3,0.6,1.6,0.6c0.6,0,1.1-0.2,1.5-0.4c0.2-0.1,0.3-0.2,0.3-0.2c0.1,0,0.2,0.2,0.2,0.2
					c0,0.5-0.6,0.9-0.9,1.1c-0.6,0.4-1.6,0.7-2.5,0.7c-1.1,0-2.1-0.5-2.5-0.9c-0.8-0.8-0.9-1.8-0.9-3.2c0.1-2.4,0.2-5,0.2-6.4
					c0-0.2-0.1-0.4-0.2-0.4l-0.8-0.3c-0.1,0-0.3-0.2-0.3-0.3c0-0.3,0.4-0.5,0.7-0.7c0.8-0.5,1.7-1.3,2.2-1.9
					c0.2-0.2,0.3-0.3,0.5-0.3c0.1,0,0.2,0.2,0.2,0.4c0,0.3,0,1.1,0,1.2c0,0,0.1,0.2,0.2,0.2C833.3,770.3,837.2,770.2,837.2,770.2z"
					/>
				<path class="st1" d="M848.9,770.3c1.1,0.8,1.4,2,1.5,3.3c0.1,1,0.2,2.9,0.2,5.9c0,1.7,0,2,1.2,2.2c0.5,0.1,0.7,0.2,0.7,0.4
					c0,0.2-0.2,0.3-0.7,0.3c-0.7,0-1.6-0.1-2.4-0.1c-1,0-1.5,0.1-2.1,0.1c-0.4,0-0.7-0.1-0.7-0.3c0-0.1,0.2-0.2,0.5-0.3
					c0.8-0.3,1.1-0.4,1.1-1.9v-5.1c0-0.9-0.2-2-0.4-2.3c-0.4-0.9-1.2-1.3-2.5-1.3c-1.4,0-2.4,0.6-2.9,1.3c0,0.1-0.2,0.5-0.2,0.8
					c-0.1,1.9-0.1,5.4,0,6.8c0.1,1.3,0.1,1.5,1.2,1.7c0.4,0.1,0.6,0.2,0.6,0.3c0,0.2-0.2,0.3-0.7,0.3c-0.8,0-1.5-0.1-2.4-0.1
					c-0.9,0-1.7,0.1-2.3,0.1c-0.3,0-0.5-0.1-0.5-0.3c0-0.2,0.2-0.3,0.8-0.4c0.7-0.2,0.9-0.7,1-2.1c0.1-1.3,0.2-3.3,0.2-6.6
					c0-6.2,0-10.3,0-10.9c0-0.3-0.1-0.5-0.8-0.9c-0.3-0.2-0.4-0.3-0.4-0.4c0-0.1,0.2-0.2,0.5-0.3c0.4-0.1,1.5-0.3,2.1-0.3
					c0.4-0.1,0.6-0.1,0.8-0.1c0.2,0,0.2,0.4,0.2,0.8c-0.1,5.2-0.1,4.6-0.1,10.7c0,0.1,0.1,0.1,0.1,0.1c1.3-1.2,2.7-2,4.3-2
					C847.5,769.7,848.6,770,848.9,770.3z"/>
				<path class="st1" d="M863.9,773.3c0,0.3-0.4,0.6-0.9,0.6c-2.2-0.1-5.4-0.1-6.4,0c-0.2,0-0.3,0.2-0.4,0.4
					c-0.1,0.2-0.1,0.7-0.1,1.3c0,2.3,1.9,5.3,4.7,5.3c1.8,0,2.5-0.7,3.1-1.6c0.2-0.2,0.4-0.3,0.4,0.2c0,0.3-0.3,0.7-0.4,0.9
					c-1.2,1.6-3,2.4-4.5,2.4c-3.4,0-5.3-2.9-5.3-6.1c0-2.1,0.7-4.6,3.2-6.1c0.6-0.4,1.5-0.7,2.7-0.7
					C862.4,769.7,863.9,771.2,863.9,773.3z M856.4,773.1c0,0.1,0.1,0.2,0.2,0.2c1.3,0,3.3-0.1,4-0.1c0.8-0.1,1.1-0.3,1.1-1
					c0-1.1-1.2-2-2-2C858.4,770.3,857,771.3,856.4,773.1z"/>
				<path class="st1" d="M881.7,781.9c-1,0.3-1.8,0.3-2.7,0.3c-0.7,0-2.1,0-3.5,0c-1.7,0-2.5,0.1-3.3,0.1c-0.4,0-0.7-0.1-0.7-0.3
					c0-0.2,0.5-0.3,0.8-0.4c1.2-0.3,1.5-0.6,1.6-2.6c0.1-1,0.1-2.2,0.1-7.5c0-4.3,0-5.7-0.1-6.8c-0.1-1.4-0.6-1.7-2-1.8
					c-0.4,0-0.8-0.1-0.8-0.3c0-0.2,0.3-0.3,0.8-0.3l1.9,0c1.1,0,3-0.2,4.9-0.2c2,0,3.3,0.3,4.4,0.9c1.7,1,2.2,2.6,2.2,3.8
					c0,1.9-1,3.2-2.7,4c-0.1,0.1,0,0.2,0.1,0.2c2.6,0.8,4.3,2.8,4.3,5.3C887,779.6,884.5,781.2,881.7,781.9z M878.1,771.7
					c-0.7,0-1.2,0-1.4,0.1c-0.1,0-0.2,0.2-0.2,0.4c0,2,0,4.8,0.1,7.1c0,0.5,0.2,1,0.5,1.2c0.8,0.5,1.7,1,2.6,1
					c2.6,0,4.5-2.1,4.5-4.9C884.2,773.5,881.5,771.7,878.1,771.7z M878.1,762.6c-0.2,0-0.7,0.1-1.1,0.2c-0.1,0-0.4,0.3-0.4,0.9
					c0,1.1-0.2,6.1-0.1,6.8c0,0.1,0,0.4,0.7,0.4c0.9,0,1.9-0.1,2.9-0.4c1.8-0.7,2.6-2,2.6-3.8C882.7,763.8,880.4,762.6,878.1,762.6z
					"/>
				<path class="st1" d="M897.9,780c0.2-0.2,0.3-0.9,0.3-1.5c0-1.2,0-5.2,0-6.4c0-0.5-0.1-0.9-0.5-1.1c-0.4-0.2-0.6-0.2-0.8-0.2
					c-0.5-0.1-0.6-0.3-0.6-0.4c0-0.2,0.3-0.2,0.6-0.2c0.3,0,2.4,0,2.8-0.1c0.2,0,0.6-0.1,0.7-0.1c0.1,0,0.2,0.3,0.2,0.9
					c0,1.2-0.1,2.5-0.1,8.7c0,1.4,0.1,1.8,0.7,1.8c0.4,0,1.6-0.3,1.7-0.3c0.1,0,0.2,0.2,0.2,0.2c0,0.2-0.1,0.6-0.3,0.6
					c-1.1,0.2-2.9,0.6-3.5,0.8c-0.3,0.1-0.6,0.1-0.7,0.1c-0.1,0-0.3-0.3-0.3-0.6c0-0.7,0.1-1.4,0.1-1.7c0-0.1-0.1-0.1-0.2-0.1
					c-0.2,0.2-1.4,1.2-2.4,1.7c-0.9,0.4-1.4,0.5-2.1,0.5c-1,0-1.9-0.4-2.5-1.1c-0.4-0.5-0.7-1.4-0.7-2.4c0-2.6,0.1-6.1,0-7.1
					c-0.1-0.8,0.1-1-1-1.3c-0.3-0.1-0.6-0.3-0.6-0.4c0-0.2,0.2-0.2,0.7-0.2c1.7,0,2.6-0.2,3.2-0.2c0.1,0,0.2,0.2,0.2,0.5
					c-0.1,2.1-0.2,5.3-0.2,7.5c0,1.4,0.2,2.2,0.9,2.7c0.5,0.3,1.2,0.5,2,0.4C897,781,897.5,780.4,897.9,780z"/>
				<path class="st1" d="M910.4,769.8l0.7,0.1c0.1,0,0.3,0.3,0.4,0.6c0,0.3,0.1,1.2,0.1,1.5c0,0.3-0.2,0.5-0.3,0.5
					c-0.1,0-0.3-0.2-0.5-0.6c-0.6-1.1-1.1-1.6-2.2-1.6c-0.8,0-2,0.7-2,2c0,1,0.3,1.6,2,2.7c1.6,1.2,3.1,2.2,3.1,4.2
					c0,1.2-0.8,2.3-1.9,2.8c-0.8,0.4-1.7,0.6-2.5,0.6c-0.7,0-1.5,0-2.1-0.2c-0.4-0.1-0.7-0.3-0.9-0.7c-0.3-0.5-0.5-1.3-0.5-1.9
					c0-0.3,0.1-0.8,0.4-0.8c0.1,0,0.2,0.3,0.3,0.5c0.5,1.2,1.5,2.5,2.9,2.5c0.8,0,2-0.9,2-2.1c0-1-0.4-1.5-1.2-2.2
					c-0.4-0.3-1.2-1-1.9-1.4c-1-0.8-1.8-1.9-1.8-3.2c0-1.2,0.7-2.2,1.3-2.6c0.5-0.4,1.6-0.8,3.1-0.8
					C909.6,769.7,910.1,769.8,910.4,769.8z"/>
				<path class="st1" d="M914.6,770.8c1.1-0.4,2.6-1.2,2.8-1.2c0.1,0,0.2,0.2,0.2,0.4c-0.1,0.7-0.1,3.4-0.1,5.6c0,3.1,0,4.1,0.1,4.9
					c0.1,0.7,0.4,0.9,1.4,1.1c0.5,0.1,0.6,0.2,0.6,0.3c0,0.3-0.3,0.3-0.7,0.3c-0.9,0-1.6-0.1-2.6-0.1c-1.2,0-1.6,0.2-2.4,0.2
					c-0.5,0-0.6-0.1-0.6-0.3c0-0.2,0.2-0.3,0.6-0.4c0.8-0.2,1.3-0.5,1.3-1.2c0.1-0.7,0.1-2.3,0.1-4.9c0-1.3-0.1-2.3-0.1-2.7
					c0-0.6-0.3-0.8-1-1.3c-0.1-0.1-0.2-0.1-0.2-0.3S914.3,770.9,914.6,770.8z M917.9,765.5c0,0.8-0.6,1.3-1.3,1.3
					c-0.7,0-1.3-0.6-1.3-1.2c0-0.7,0.7-1.4,1.3-1.4C917.4,764.2,917.9,764.7,917.9,765.5z"/>
				<path class="st1" d="M922,770.5c0.7-0.2,1.5-0.6,2.1-0.9c0.2-0.1,0.3-0.2,0.5-0.2s0.2,0.2,0.2,0.4c0,0.5,0,1.4,0,1.5
					c0,0,0,0.2,0.1,0.2c1-0.8,2.7-1.9,4.4-1.9c1.3,0,2.3,0.6,2.7,1.2c0.8,1,0.9,1.9,1,4.3l0.1,4.8c0,1,0.3,1.4,1.2,1.6
					c0.4,0.1,0.6,0.2,0.6,0.4c0,0.3-0.4,0.3-0.8,0.3c-0.4,0-1.5-0.1-2.3-0.1c-0.7,0-1.4,0.1-2,0.1c-0.5,0-0.7-0.2-0.7-0.3
					c0-0.2,0.4-0.3,0.8-0.5c0.8-0.2,0.9-0.5,0.9-2.6l0.1-2.8c0-2.6-0.2-3.4-0.6-4c-0.5-0.6-1.4-1.1-2.3-1.1c-1.3,0-2.3,0.6-2.8,1.2
					c-0.1,0.1-0.2,0.8-0.2,0.8c0,2,0,4.3,0,6.2c0,1.7,0.2,2.2,1.3,2.4c0.4,0.1,0.6,0.2,0.6,0.4s-0.2,0.3-0.7,0.3
					c-0.9,0-1.7-0.1-2.4-0.1c-0.8,0-1.3,0.1-2.1,0.1c-0.5,0-0.7-0.1-0.7-0.3s0.2-0.3,0.6-0.4c0.9-0.2,1.1-0.6,1.1-1.2
					c0-0.6,0.2-4,0.2-6.8c0-1.4,0-1.9-1-2.4c-0.2-0.1-0.3-0.3-0.3-0.3C921.4,770.6,921.6,770.6,922,770.5z"/>
				<path class="st1" d="M946.1,773.3c0,0.3-0.4,0.6-0.9,0.6c-2.2-0.1-5.4-0.1-6.4,0c-0.2,0-0.3,0.2-0.4,0.4
					c-0.1,0.2-0.1,0.7-0.1,1.3c0,2.3,1.9,5.3,4.7,5.3c1.8,0,2.5-0.7,3.1-1.6c0.2-0.2,0.4-0.3,0.4,0.2c0,0.3-0.3,0.7-0.4,0.9
					c-1.2,1.6-3,2.4-4.5,2.4c-3.4,0-5.3-2.9-5.3-6.1c0-2.1,0.7-4.6,3.2-6.1c0.6-0.4,1.5-0.7,2.7-0.7
					C944.6,769.7,946.1,771.2,946.1,773.3z M938.6,773.1c0,0.1,0.1,0.2,0.2,0.2c1.3,0,3.3-0.1,4-0.1c0.8-0.1,1.1-0.3,1.1-1
					c0-1.1-1.2-2-2-2C940.6,770.3,939.2,771.3,938.6,773.1z"/>
				<path class="st1" d="M954.6,769.8l0.7,0.1c0.1,0,0.3,0.3,0.4,0.6c0,0.3,0.1,1.2,0.1,1.5c0,0.3-0.2,0.5-0.3,0.5
					c-0.1,0-0.3-0.2-0.5-0.6c-0.6-1.1-1.1-1.6-2.2-1.6c-0.8,0-2,0.7-2,2c0,1,0.3,1.6,2,2.7c1.6,1.2,3.1,2.2,3.1,4.2
					c0,1.2-0.8,2.3-1.9,2.8c-0.8,0.4-1.7,0.6-2.5,0.6c-0.7,0-1.5,0-2.1-0.2c-0.4-0.1-0.7-0.3-0.9-0.7c-0.3-0.5-0.5-1.3-0.5-1.9
					c0-0.3,0.1-0.8,0.4-0.8c0.1,0,0.2,0.3,0.3,0.5c0.5,1.2,1.5,2.5,2.9,2.5c0.8,0,2-0.9,2-2.1c0-1-0.4-1.5-1.2-2.2
					c-0.4-0.3-1.2-1-1.9-1.4c-1-0.8-1.8-1.9-1.8-3.2c0-1.2,0.7-2.2,1.3-2.6c0.5-0.4,1.6-0.8,3.1-0.8
					C953.8,769.7,954.2,769.8,954.6,769.8z"/>
			</g>
			<g>
				<path class="st1" d="M964.1,769.8l0.7,0.1c0.1,0,0.3,0.3,0.4,0.6c0,0.3,0.1,1.2,0.1,1.5c0,0.3-0.2,0.5-0.3,0.5
					c-0.1,0-0.3-0.2-0.5-0.6c-0.6-1.1-1.1-1.6-2.2-1.6c-0.8,0-2,0.7-2,2c0,1,0.3,1.6,2,2.7c1.6,1.2,3.1,2.2,3.1,4.2
					c0,1.2-0.8,2.3-1.9,2.8c-0.8,0.4-1.7,0.6-2.5,0.6c-0.7,0-1.5,0-2.1-0.2c-0.4-0.1-0.7-0.3-0.9-0.7c-0.3-0.5-0.5-1.3-0.5-1.9
					c0-0.3,0.1-0.8,0.4-0.8c0.1,0,0.2,0.3,0.3,0.5c0.5,1.2,1.5,2.5,2.9,2.5c0.8,0,2-0.9,2-2.1c0-1-0.4-1.5-1.2-2.2
					c-0.4-0.3-1.2-1-1.9-1.4c-1-0.8-1.8-1.9-1.8-3.2c0-1.2,0.7-2.2,1.3-2.6c0.5-0.4,1.6-0.8,3.1-0.8
					C963.3,769.7,963.8,769.8,964.1,769.8z"/>
				<path class="st1" d="M986,776c0,3.1-1.6,4.6-2.9,5.6c-1,0.7-2.3,1.2-3.2,1.2c-3.7,0-6.6-2.7-6.6-6.4c0-1.8,0.7-3.5,1.8-4.7
					c1.2-1.2,2.9-2,4.4-2C983,769.7,986,772.2,986,776z M977,771.9c-0.6,0.8-1.1,2.2-1.1,4.1c0,2.9,1.4,6,4.1,6
					c0.3,0,1.4-0.2,2.1-1.2c0.8-1,1.3-2.5,1.3-4.5c0-2.4-1.5-5.9-4-5.9C978.6,770.4,977.8,770.6,977,771.9z"/>
				<path class="st1" d="M988.4,771.7c-0.1,0-0.2-0.2-0.2-0.2c0-0.1,0.1-0.3,0.4-0.4c0.2-0.2,0.7-0.5,1-0.7c0.2-0.2,0.3-0.4,0.3-0.5
					c0-1.6,0.3-3.8,0.8-5c0.9-2.4,2.2-3.5,3.6-4.2c0.8-0.5,1.7-0.6,2.5-0.6c0.7,0,1.6,0.3,2.2,0.7c0.3,0.3,0.7,0.7,0.7,1.2
					c0,0.5-0.6,1.2-1.2,1.2c-0.3,0-0.7-0.4-0.9-0.6c-0.7-0.7-1.5-1.2-2.4-1.2c-1.2,0-2.1,0.6-2.6,2.9c-0.3,1.2-0.4,3.3-0.3,5.5
					c0,0.2,0.2,0.4,0.3,0.4l3.5,0c0.1,0,0.2,0.2,0.2,0.5c0,0.3-0.3,0.9-0.4,0.9c-0.4,0-2.9-0.1-3.3-0.1c-0.2,0-0.3,0.2-0.3,0.4
					c0,2.5,0,6.1,0.1,7.8c0.1,1.4,0.1,1.6,2,1.9c0.3,0,0.6,0.2,0.6,0.3c0,0.2-0.2,0.3-0.6,0.3c-0.9,0-2.1-0.1-3.3-0.1
					c-0.8,0-1.5,0.2-2.3,0.2c-0.4,0-0.6-0.1-0.6-0.3s0.2-0.3,0.5-0.3c1.3-0.3,1.3-0.6,1.4-2.5c0.1-2.1,0.1-4.5,0.1-7.3
					c0-0.3-0.1-0.4-0.2-0.4L988.4,771.7z"/>
			</g>
			<g>
				<path class="st1" d="M1003,762.2c0.9,0,2,0.1,2.7,0.1c0.6,0,2.1-0.1,3.1-0.1c0.5,0,0.7,0.1,0.7,0.3c0,0.2-0.2,0.3-0.7,0.4
					c-0.9,0.2-1.4,0.5-1.5,1.5c-0.1,1.2-0.1,2.2-0.1,6.5c0,0.3,0.1,0.6,0.3,0.6h11.9c0.2,0,0.4-0.1,0.4-0.4c0-2.2,0-4.3,0-5.8
					c-0.1-1.7-0.4-2.1-1.9-2.5c-0.4-0.1-0.7-0.2-0.7-0.3c0-0.3,0.3-0.3,0.8-0.3c0.9,0,2,0.1,2.9,0.1c1,0,2.2-0.1,3.2-0.1
					c0.4,0,0.6,0.1,0.6,0.3c0,0.2-0.2,0.3-0.8,0.4c-0.9,0.2-1.3,0.5-1.4,1.8c-0.1,0.8-0.1,3.1-0.1,8.7c0,5,0.2,5.6,0.3,6.6
					c0.2,1.2,0.6,1.5,1.7,1.7c0.3,0.1,0.6,0.2,0.6,0.3c0,0.2-0.2,0.4-0.7,0.4c-0.7,0-2-0.2-3.1-0.2c-1.2,0-2.2,0.1-3.1,0.1
					c-0.3,0-0.7-0.1-0.7-0.3c0-0.2,0.2-0.3,0.8-0.5c1.1-0.2,1.6-0.5,1.6-2.1c0.1-2.1,0.1-4,0.1-6.1c0-0.4-0.2-0.5-0.2-0.5h-12.1
					c-0.1,0-0.3,0.2-0.3,0.4c0,1.9-0.1,3.5,0.2,5.6c0.2,2.1,0.3,2.4,2,2.8c0.3,0.1,0.6,0.2,0.6,0.4c0,0.2-0.3,0.3-0.7,0.3
					c-0.4,0-2.1-0.1-3.4-0.1c-0.8,0-2.3,0.2-2.9,0.2c-0.4,0-0.8-0.1-0.8-0.3c0-0.2,0.3-0.3,0.6-0.4c1.1-0.2,1.6-0.5,1.7-1.4
					c0.2-1.3,0.1-4.8,0.1-7.2c0-5.5-0.1-7.1-0.2-8.2c-0.1-1.2-0.2-1.9-1.6-2.1c-0.4-0.1-0.6-0.3-0.6-0.4
					C1002.3,762.2,1002.6,762.2,1003,762.2z"/>
				<path class="st1" d="M1036.7,773.3c0,0.3-0.4,0.6-0.9,0.6c-2.2-0.1-5.4-0.1-6.4,0c-0.2,0-0.3,0.2-0.4,0.4
					c-0.1,0.2-0.1,0.7-0.1,1.3c0,2.3,1.9,5.3,4.7,5.3c1.8,0,2.5-0.7,3.1-1.6c0.2-0.2,0.4-0.3,0.4,0.2c0,0.3-0.3,0.7-0.4,0.9
					c-1.2,1.6-3,2.4-4.5,2.4c-3.4,0-5.3-2.9-5.3-6.1c0-2.1,0.7-4.6,3.2-6.1c0.6-0.4,1.5-0.7,2.7-0.7
					C1035.1,769.7,1036.7,771.2,1036.7,773.3z M1029.2,773.1c0,0.1,0.1,0.2,0.2,0.2c1.3,0,3.3-0.1,4-0.1c0.8-0.1,1.1-0.3,1.1-1
					c0-1.1-1.2-2-2-2C1031.2,770.3,1029.8,771.3,1029.2,773.1z"/>
			</g>
			<g>
				<path class="st1" d="M1045.7,770.8c0.8,1,0.8,2.2,0.8,3.3v0.4c0,1-0.1,2.6-0.1,4.5c0,1.6,0.7,2,1.2,2c0.3,0,0.9-0.2,1.2-0.4
					c0.1,0,0.3,0,0.3,0.2c0,0.1,0,0.2-0.1,0.4c-0.5,0.8-1.2,1.4-2.6,1.4c-1,0-1.7-0.5-2-1.6c0-0.1-0.2-0.1-0.2-0.1
					c-1.5,1.1-2.7,1.6-3.6,1.6c-1.2,0-2.5-0.9-2.5-2.8c0-1.5,1.2-1.9,1.6-2.1c0.3-0.1,1.7-0.5,4.2-1.4c0.3-0.1,0.5-0.3,0.5-0.6
					c0-0.3,0.1-2,0.1-2.6c0-0.5-0.6-2.1-2.3-2.1c-0.7,0-1.7,0-1.7,1.9c0,0-0.2,0.2-0.3,0.3c-0.1,0.1-1.6,0.9-1.7,0.9
					c-0.2,0-0.3-0.2-0.3-0.3c0-1.4,2.1-2.7,3.1-3.3c0.6-0.3,1.5-0.8,2.1-0.8C1044.2,769.7,1045.1,770.1,1045.7,770.8z M1043.9,780.6
					c0.4-0.4,0.4-2.4,0.4-3.5c0-0.1-0.1-0.2-0.2-0.2c-2.2,0.5-3.8,1.2-3.8,2.5c0,1.1,0.7,1.8,1.8,1.8
					C1042.8,781.2,1043.4,781.1,1043.9,780.6z"/>
				<path class="st1" d="M1051.1,763.1c0-0.7-0.1-0.8-1-1.4c-0.2-0.2-0.3-0.3-0.3-0.3c0-0.1,0.2-0.3,0.3-0.3
					c0.7-0.4,2.9-1.1,3.3-1.1c0.1,0,0.2,0.2,0.2,0.5c-0.1,3.5-0.1,7.1-0.1,10c0,3.3,0,6.8,0.1,9.1c0.1,1.7,0.1,1.8,1.3,2.1
					c0.5,0.2,0.5,0.3,0.5,0.4c0,0.2-0.3,0.3-0.7,0.3c-0.6,0-1.7-0.1-2.8-0.1c-1,0-1.8,0.1-2.4,0.1c-0.3,0-0.6-0.2-0.6-0.3
					c0-0.1,0.1-0.2,0.4-0.3c1.4-0.3,1.6-0.6,1.7-1.8c0.1-0.6,0.2-5.5,0.2-9.3C1051.3,767.8,1051.3,764.8,1051.1,763.1z"/>
			</g>
			<g>
				<path class="st1" d="M1065.2,770.2c0.1,0,0.3,0.7,0.3,1.2c0,0.1-0.2,0.4-0.4,0.4c-0.4,0-3.3-0.2-4.1-0.2c-0.1,0-0.1,0.2-0.1,0.3
					l0,6.1c0,1.3,0.2,2.1,0.7,2.6c0.4,0.4,1.3,0.6,1.6,0.6c0.6,0,1.1-0.2,1.5-0.4c0.2-0.1,0.3-0.2,0.3-0.2s0.2,0.2,0.2,0.2
					c0,0.5-0.6,0.9-0.9,1.1c-0.6,0.4-1.6,0.7-2.5,0.7c-1.1,0-2.1-0.5-2.5-0.9c-0.8-0.8-0.9-1.8-0.9-3.2c0.1-2.4,0.2-5,0.2-6.4
					c0-0.2-0.1-0.4-0.2-0.4l-0.8-0.3c-0.1,0-0.3-0.2-0.3-0.3c0-0.3,0.4-0.5,0.7-0.7c0.8-0.5,1.7-1.3,2.2-1.9
					c0.2-0.2,0.3-0.3,0.5-0.3c0.1,0,0.2,0.2,0.2,0.4c0,0.3,0,1.1,0,1.2c0,0,0.1,0.2,0.2,0.2C1061.3,770.3,1065.2,770.2,1065.2,770.2
					z"/>
				<path class="st1" d="M1076.9,770.3c1.1,0.8,1.4,2,1.5,3.3c0.1,1,0.2,2.9,0.2,5.9c0,1.7,0,2,1.2,2.2c0.5,0.1,0.7,0.2,0.7,0.4
					c0,0.2-0.2,0.3-0.7,0.3c-0.7,0-1.6-0.1-2.4-0.1c-1,0-1.5,0.1-2.1,0.1c-0.4,0-0.7-0.1-0.7-0.3c0-0.1,0.2-0.2,0.5-0.3
					c0.8-0.3,1.2-0.4,1.2-1.9v-5.1c0-0.9-0.2-2-0.4-2.3c-0.4-0.9-1.2-1.3-2.5-1.3c-1.4,0-2.4,0.6-2.9,1.3c0,0.1-0.2,0.5-0.2,0.8
					c-0.1,1.9-0.1,5.4,0,6.8c0.1,1.3,0.1,1.5,1.2,1.7c0.4,0.1,0.6,0.2,0.6,0.3c0,0.2-0.2,0.3-0.8,0.3c-0.8,0-1.5-0.1-2.4-0.1
					c-0.9,0-1.7,0.1-2.3,0.1c-0.3,0-0.5-0.1-0.5-0.3c0-0.2,0.2-0.3,0.8-0.4c0.7-0.2,0.9-0.7,1-2.1c0.1-1.3,0.2-3.3,0.2-6.6
					c0-6.2,0-10.3,0-10.9c0-0.3-0.1-0.5-0.8-0.9c-0.3-0.2-0.4-0.3-0.4-0.4c0-0.1,0.2-0.2,0.5-0.3c0.4-0.1,1.5-0.3,2.1-0.3
					c0.4-0.1,0.6-0.1,0.8-0.1c0.2,0,0.2,0.4,0.2,0.8c-0.1,5.2-0.1,4.6-0.1,10.7c0,0.1,0.1,0.1,0.1,0.1c1.3-1.2,2.7-2,4.3-2
					C1075.5,769.7,1076.5,770,1076.9,770.3z"/>
			</g>
			<g>
				<path class="st1" d="M1092.4,770.4c0.1,0.1,0.3,0.4,0.3,0.7c0,0.3-0.3,1.3-0.7,1.3c-0.2,0-0.6-0.4-0.8-0.6
					c-0.8-0.7-1.7-1.4-3.1-1.4c-1.1,0-2.2,1-2.8,1.7c-0.5,0.6-0.8,1.8-0.8,3.3c0,2.2,1.6,5.5,5,5.5c2.1,0,2.9-0.9,3.4-1.5
					c0.1-0.1,0.3,0,0.3,0.1c0,0.4-0.3,0.8-0.5,1.1c-1.1,1.2-2.7,2-4.6,2s-3.2-0.8-4.1-1.8c-1.2-1.2-1.6-3-1.6-4.3
					c0-2.7,1.1-4.5,2.8-5.6c0.9-0.6,2.6-1.4,4.2-1.4C1090.6,769.7,1091.9,770,1092.4,770.4z"/>
				<path class="st1" d="M1102.4,770.8c0.8,1,0.8,2.2,0.8,3.3v0.4c0,1-0.1,2.6-0.1,4.5c0,1.6,0.7,2,1.2,2c0.3,0,0.9-0.2,1.2-0.4
					c0.1,0,0.3,0,0.3,0.2c0,0.1,0,0.2-0.1,0.4c-0.5,0.8-1.2,1.4-2.6,1.4c-1,0-1.7-0.5-2-1.6c0-0.1-0.2-0.1-0.2-0.1
					c-1.5,1.1-2.7,1.6-3.6,1.6c-1.2,0-2.5-0.9-2.5-2.8c0-1.5,1.2-1.9,1.6-2.1c0.3-0.1,1.7-0.5,4.2-1.4c0.3-0.1,0.5-0.3,0.5-0.6
					c0-0.3,0.1-2,0.1-2.6c0-0.5-0.6-2.1-2.3-2.1c-0.7,0-1.7,0-1.7,1.9c0,0-0.2,0.2-0.3,0.3c-0.1,0.1-1.6,0.9-1.7,0.9
					c-0.2,0-0.3-0.2-0.3-0.3c0-1.4,2.1-2.7,3.1-3.3c0.6-0.3,1.5-0.8,2.1-0.8C1100.8,769.7,1101.7,770.1,1102.4,770.8z M1100.5,780.6
					c0.4-0.4,0.4-2.4,0.4-3.5c0-0.1-0.1-0.2-0.2-0.2c-2.2,0.5-3.8,1.2-3.8,2.5c0,1.1,0.7,1.8,1.8,1.8
					C1099.5,781.2,1100.1,781.1,1100.5,780.6z"/>
			</g>
			<g>
				<path class="st1" d="M1107.5,770.7c1.2-0.4,2-0.7,2.3-0.9c0.2-0.1,0.4-0.2,0.5-0.2c0.1,0,0.2,0.3,0.2,0.4c0,1-0.1,2.1-0.1,2.4
					c0,0,0.1,0.1,0.1,0.1c0.9-1,2.3-2.6,3.8-2.6c0.8,0,1.3,0.6,1.3,1c0,1-0.9,1.6-1.2,1.6c-0.2,0-0.5-0.2-0.7-0.3
					c-0.5-0.3-0.9-0.4-1.2-0.4c-0.5,0-1.1,0.5-1.5,1c-0.3,0.5-0.4,1.1-0.4,1.2c-0.1,1.4,0,5.2,0.2,6.4c0.1,0.8,0.5,1.2,2,1.5
					c0.5,0.1,0.7,0.2,0.7,0.4c0,0.2-0.3,0.3-0.8,0.3c-1.1,0-2.4-0.2-3.5-0.2c-0.7,0-1.7,0.1-2.1,0.1c-0.4,0-0.6-0.2-0.6-0.3
					s0.2-0.3,0.7-0.4c1.2-0.3,1.4-1,1.4-2.5c0-3.7,0-5.1-0.1-6.1c-0.1-0.7,0-1-1.1-1.6c-0.1-0.1-0.3-0.1-0.3-0.2
					C1107,771,1107.2,770.8,1107.5,770.7z"/>
				<path class="st1" d="M1126.5,773.3c0,0.3-0.4,0.6-0.9,0.6c-2.2-0.1-5.4-0.1-6.4,0c-0.2,0-0.3,0.2-0.4,0.4
					c-0.1,0.2-0.1,0.7-0.1,1.3c0,2.3,1.9,5.3,4.7,5.3c1.8,0,2.5-0.7,3.1-1.6c0.2-0.2,0.4-0.3,0.4,0.2c0,0.3-0.3,0.7-0.4,0.9
					c-1.2,1.6-3,2.4-4.5,2.4c-3.4,0-5.3-2.9-5.3-6.1c0-2.1,0.7-4.6,3.2-6.1c0.6-0.4,1.5-0.7,2.7-0.7
					C1125,769.7,1126.5,771.2,1126.5,773.3z M1119,773.1c0,0.1,0.1,0.2,0.2,0.2c1.3,0,3.3-0.1,4-0.1c0.8-0.1,1.1-0.3,1.1-1
					c0-1.1-1.2-2-2-2C1121,770.3,1119.6,771.3,1119,773.1z"/>
			</g>
		</g>
	</g>
	<g>
		<path class="st0" d="M1135.5,639.2c0-2.9,2.3-5.3,5.2-5.3c2.9,0,5.3,2.3,5.3,5.3c0,2.9-2.4,5.3-5.3,5.3
			C1137.8,644.5,1135.5,642,1135.5,639.2z M1145.2,639.2c0-2.6-1.9-4.7-4.5-4.7c-2.5,0-4.4,2.1-4.4,4.7c0,2.6,1.9,4.7,4.5,4.7
			C1143.3,643.9,1145.2,641.7,1145.2,639.2z M1141.5,639.2c0.5,0,0.9,0.6,1.3,1.5c0.4,0.9,0.6,1.2,1.1,1.2v0.3h-0.4
			c-1.2,0-1.1-0.1-1.7-1.4c-0.4-0.9-0.6-1.6-1.8-1.5v2.1c0,0.4,0.3,0.5,0.7,0.4v0.3h-2.5v-0.3c0.4,0,0.7,0,0.7-0.4v-4.8
			c0-0.4-0.3-0.4-0.7-0.4V636h2.5c1.5,0,2.4,0.3,2.4,1.6C1143.1,638.4,1142.3,639.1,1141.5,639.2L1141.5,639.2z M1140.2,639
			c1,0,2-0.1,2-1.4c0-0.8-0.4-1.3-1.4-1.3c-0.6,0-0.7,0-0.7,0.7v2H1140.2z"/>
	</g>
</g>
</svg>
